<svg width="85" height="34" viewBox="0 0 85 34" fill="none" xmlns="http://www.w3.org/2000/svg">
<g clip-path="url(#clip0_31_1507)">
<path d="M29.9235 28.5424C27.472 30.8808 24.3488 32.4732 20.9486 33.1182C17.5482 33.7635 14.0238 33.4323 10.8208 32.1668C7.61784 30.9013 4.88023 28.7584 2.95414 26.0089C1.02805 23.2592 2.1352e-07 20.0266 0 16.7198C-2.1352e-07 13.4129 1.02805 10.1803 2.95414 7.43078C4.88023 4.68123 7.61784 2.5382 10.8208 1.27273C14.0238 0.00724457 17.5482 -0.323863 20.9486 0.321274C24.3488 0.966409 27.472 2.55881 29.9235 4.89711L27.6019 7.11152C25.6097 5.21118 23.0714 3.91703 20.3079 3.39274C17.5446 2.86843 14.6803 3.13753 12.0772 4.16598C9.47419 5.19444 7.24932 6.93606 5.68399 9.17063C4.11866 11.4052 3.28317 14.0323 3.28317 16.7198C3.28317 19.4073 4.11866 22.0344 5.68399 24.2689C7.24932 26.5036 9.47419 28.2452 12.0772 29.2736C14.6803 30.302 17.5446 30.5711 20.3079 30.0469C23.0714 29.5225 25.6097 28.2284 27.6019 26.328L29.9235 28.5424Z" fill="white"/>
<mask id="mask0_31_1507" style="mask-type:alpha" maskUnits="userSpaceOnUse" x="5" y="5" width="25" height="24">
<path d="M17.5288 28.2088C24.1811 28.2088 29.5737 23.065 29.5737 16.7198C29.5737 10.3746 24.1811 5.23077 17.5288 5.23077C10.8766 5.23077 5.48389 10.3746 5.48389 16.7198C5.48389 23.065 10.8766 28.2088 17.5288 28.2088Z" fill="white"/>
</mask>
<g mask="url(#mask0_31_1507)">
<path d="M5.48389 16.5379V28.2088H29.5737V13.8594L28.1201 15.677H26.2676L26.3549 8.8849L25.8357 8.40659H24.4859L23.9667 8.8849V25.0518H22.5129V15.677H20.5401V14.529L17.7365 12.1374L15.2444 14.529V25.0518H13.2716V12.5201H11.9217V18.9294H7.87211V16.5379H5.48389Z" fill="#AAAAAA"/>
<path d="M5.48389 20.9083H6.86046V23.6707H9.61357V13.9039L12.3667 10.6483V23.6707H13.35V17.8501H15.1198V23.6707H16.6931V13.9039H19.5445V16.5676H21.5111V13.312L23.2808 13.608V16.5676L24.9524 14.6932V23.6707H25.444V20.3165H26.8207V28.2088H27.4106V21.7962H28.9838V23.0787H29.5737V28.2088H27.4106H26.8207H5.48389V20.9083Z" fill="#CCCCCC"/>
<path d="M13.5139 25.033H14.1993V18.0275L14.4931 17.3736L14.7869 18.0275V25.033V28.1154H15.4724V15.1319H18.2143V28.1154H15.4724H14.7869H13.5139V25.033Z" fill="white"/>
<path d="M14.7869 28.1154V25.033V18.0275L14.4931 17.3736L14.1993 18.0275V25.033H13.5139V28.1154H14.7869ZM14.7869 28.1154H15.4724M15.4724 28.1154V15.1319H18.2143V28.1154H15.4724Z" stroke="white"/>
<path d="M9.20508 22.978H6.659V28.2088H9.20508V22.978Z" fill="white"/>
<path d="M6.659 24.6593H5.48389V28.2088H6.659V24.6593Z" fill="white"/>
<path d="M13.5138 28.2088H9.20508V18.4945H10.5456H11.5031L13.5138 19.9092V28.2088Z" fill="white"/>
<path d="M29.5737 28.2088H18.2143V23.6319H19.0045V22.2308L19.7948 23.445V20.8297H21.2764V23.445H22.7581V27.2747H23.252V17.5604L25.5239 19.3352V24.3791H26.7092V27.3681L27.2031 25.6868L27.7958 27.3681V22.8846H29.5737V28.2088Z" fill="white"/>
</g>
<path d="M51.9327 9.49352C51.7366 7.91374 50.9411 6.68734 49.5464 5.81431C48.1517 4.94128 46.441 4.50475 44.4143 4.50475C42.9325 4.50475 41.6357 4.73341 40.5245 5.19071C39.424 5.64801 38.563 6.2768 37.942 7.07709C37.3319 7.87736 37.0267 8.78677 37.0267 9.80531C37.0267 10.6576 37.2392 11.3903 37.6642 12.0035C38.1 12.6063 38.6556 13.1104 39.3313 13.5157C40.0068 13.9106 40.715 14.238 41.4559 14.4979C42.197 14.7473 42.878 14.95 43.4991 15.1059L46.8987 15.9789C47.7704 16.1972 48.7401 16.4986 49.8079 16.8831C50.8866 17.2677 51.9162 17.7925 52.8971 18.4577C53.8885 19.1125 54.7058 19.9543 55.3485 20.9832C55.9915 22.0122 56.3129 23.2749 56.3129 24.7716C56.3129 26.4968 55.839 28.0558 54.891 29.4485C53.9539 30.8412 52.5809 31.9481 50.7722 32.7693C48.9743 33.5903 46.7896 34.0008 44.2182 34.0008C41.821 34.0008 39.7454 33.6318 37.9911 32.8939C36.2476 32.156 34.8747 31.127 33.8723 29.8072C32.8807 28.4872 32.3196 26.9542 32.1888 25.2082H36.373C36.4819 26.4137 36.9069 27.4115 37.6478 28.2013C38.3997 28.9809 39.3476 29.5628 40.4918 29.9475C41.6467 30.3217 42.8888 30.5087 44.2182 30.5087C45.7655 30.5087 47.1547 30.2695 48.386 29.7915C49.6173 29.303 50.5925 28.6274 51.3116 27.7649C52.0308 26.8918 52.3904 25.8733 52.3904 24.7092C52.3904 23.6491 52.0798 22.7865 51.4587 22.1213C50.8377 21.4561 50.0204 20.9156 49.007 20.5C47.9937 20.0843 46.8987 19.7204 45.7218 19.4086L41.603 18.2862C38.988 17.5691 36.9178 16.5453 35.3923 15.215C33.8668 13.8847 33.1042 12.1438 33.1042 9.99239C33.1042 8.20475 33.6109 6.64576 34.6242 5.31543C35.6483 3.97471 37.0212 2.93537 38.7428 2.19746C40.4753 1.44914 42.4093 1.07498 44.5451 1.07498C46.7024 1.07498 48.6202 1.44394 50.2983 2.18186C51.9762 2.90938 53.3056 3.90714 54.2862 5.17513C55.2778 6.44311 55.8008 7.88256 55.8552 9.49352H51.9327Z" fill="white"/>
<path d="M60.4608 33.4395H56.2114L68.5022 1.51147H72.6863L84.9773 33.4395H80.7277L70.7251 6.5626H70.4634L60.4608 33.4395ZM62.0298 20.9677H79.1587V24.3974H62.0298V20.9677Z" fill="white"/>
</g>
<defs>
<clipPath id="clip0_31_1507">
<rect width="85" height="34" fill="white"/>
</clipPath>
</defs>
</svg>
