<svg width="310" height="123" viewBox="0 0 310 123" fill="none" xmlns="http://www.w3.org/2000/svg">
<g clip-path="url(#clip0_28_207)">
<path d="M109.133 103.257C100.192 111.716 88.8014 117.477 76.4007 119.81C63.9995 122.144 51.1456 120.946 39.4641 116.368C27.7827 111.79 17.7985 104.038 10.7739 94.091C3.74935 84.1435 7.78721e-07 72.4491 0 60.4863C-7.78721e-07 48.5233 3.74934 36.8289 10.7739 26.8819C17.7985 16.935 27.7827 9.18231 39.4641 4.60427C51.1456 0.0262083 63.9995 -1.17162 76.4007 1.16225C88.8014 3.49613 100.192 9.25686 109.133 17.716L100.666 25.727C93.4 18.8522 84.1428 14.1704 74.0643 12.2737C63.9862 10.377 53.5399 11.3505 44.0464 15.071C34.5529 18.7917 26.4387 25.0922 20.7299 33.1761C15.021 41.2599 11.9739 50.764 11.9739 60.4863C11.9739 70.2087 15.021 79.7128 20.7299 87.7963C26.4387 95.8806 34.5529 102.181 44.0464 105.902C53.5399 109.622 63.9862 110.595 74.0643 108.699C84.1428 106.802 93.4 102.12 100.666 95.2453L109.133 103.257Z" fill="#006FBA"/>
<mask id="mask0_28_207" style="mask-type:alpha" maskUnits="userSpaceOnUse" x="20" y="18" width="88" height="85">
<path d="M63.9286 102.049C88.1896 102.049 107.857 83.441 107.857 60.4863C107.857 37.5315 88.1896 18.9231 63.9286 18.9231C39.6675 18.9231 20 37.5315 20 60.4863C20 83.441 39.6675 102.049 63.9286 102.049Z" fill="white"/>
</mask>
<g mask="url(#mask0_28_207)">
<path d="M20 59.8284V102.049H107.857V50.1383L102.556 56.7137H95.7993L96.1179 32.1425L94.2243 30.4121H89.3014L87.4079 32.1425V90.6287H82.1057V56.7137H74.9107V52.5608L64.6859 43.909L55.5973 52.5608V90.6287H48.4021V45.2933H43.4791V68.4799H28.71V59.8284H20Z" fill="#59BDFF"/>
<path d="M20 75.6389H25.0204V85.6323H35.0612V50.2996L45.1021 38.522V85.6323H48.6881V64.5754H55.1429V85.6323H60.8805V50.2996H71.2799V59.9357H78.4521V48.1581L84.9064 49.2289V59.9357L91.0029 53.1547V85.6323H92.7957V73.4979H97.8164V102.049H99.9679V78.8511H105.706V83.4906H107.857V102.049H99.9679H97.8164H20V75.6389Z" fill="#3498DB"/>
<path d="M49.2861 90.5604H51.7861V65.217L52.8576 62.8516L53.929 65.217V90.5604V101.712H56.429V54.7418H66.429V101.712H56.429H53.929H49.2861V90.5604Z" fill="#006FBA"/>
<path d="M53.929 101.712V90.5604V65.217L52.8576 62.8516L51.7861 65.217V90.5604H49.2861V101.712H53.929ZM53.929 101.712H56.429M56.429 101.712V54.7418H66.429V101.712H56.429Z" stroke="#006FBA"/>
<path d="M33.5718 83.1264H24.2861V102.049H33.5718V83.1264Z" fill="#006FBA"/>
<path d="M24.2857 89.2088H20V102.049H24.2857V89.2088Z" fill="#006FBA"/>
<path d="M49.2856 102.049H33.5713V66.9066H38.4601H41.9522L49.2856 72.0246V102.049Z" fill="#006FBA"/>
<path d="M107.857 102.049H66.4287V85.4918H69.3107V80.4231L72.193 84.8159V75.3544H77.5966V84.8159H83.0001V98.6703H84.8016V63.5275L93.0873 69.9478V88.1951H97.4101V99.0082L99.2116 92.9258L101.373 99.0082V82.7885H107.857V102.049Z" fill="#006FBA"/>
</g>
<path d="M189.402 34.3442C188.687 28.6291 185.785 24.1924 180.699 21.0341C175.612 17.8758 169.373 16.2966 161.982 16.2966C156.577 16.2966 151.848 17.1238 147.795 18.7781C143.782 20.4325 140.642 22.7072 138.377 25.6024C136.152 28.4975 135.039 31.7874 135.039 35.4721C135.039 38.5552 135.814 41.206 137.364 43.4243C138.953 45.6051 140.98 47.4287 143.444 48.895C145.907 50.3238 148.49 51.5081 151.192 52.4481C153.895 53.3505 156.379 54.0837 158.644 54.6477L171.042 57.806C174.222 58.5956 177.758 59.6859 181.652 61.0771C185.587 62.4683 189.342 64.367 192.919 66.7734C196.535 69.1422 199.515 72.1875 201.86 75.9099C204.205 79.6324 205.377 84.2002 205.377 89.615C205.377 95.8562 203.648 101.496 200.191 106.534C196.773 111.572 191.766 115.577 185.17 118.548C178.612 121.518 170.645 123.003 161.267 123.003C152.524 123.003 144.954 121.668 138.556 118.998C132.197 116.329 127.19 112.606 123.535 107.832C119.918 103.056 117.872 97.5106 117.395 91.1944H132.655C133.052 95.5554 134.602 99.165 137.304 102.022C140.046 104.843 143.503 106.948 147.676 108.339C151.888 109.693 156.418 110.37 161.267 110.37C166.91 110.37 171.976 109.504 176.467 107.775C180.957 106.008 184.514 103.564 187.137 100.444C189.76 97.2849 191.071 93.6003 191.071 89.3892C191.071 85.5539 189.938 82.4336 187.673 80.027C185.408 77.6204 182.427 75.6653 178.732 74.1616C175.036 72.6579 171.042 71.3413 166.75 70.2134L151.729 66.153C142.192 63.5587 134.642 59.8552 129.078 55.0425C123.515 50.2298 120.733 43.9319 120.733 36.1489C120.733 29.6819 122.581 24.042 126.277 19.2293C130.012 14.379 135.019 10.6191 141.297 7.94959C147.616 5.24244 154.67 3.88886 162.459 3.88886C170.327 3.88886 177.321 5.22364 183.441 7.89315C189.56 10.5251 194.409 14.1346 197.985 18.7217C201.602 23.3088 203.509 28.5163 203.707 34.3442H189.402Z" fill="#006FBA"/>
<path d="M220.505 120.973H205.007L249.832 5.46803H265.092L309.918 120.973H294.419L257.939 23.7412H256.985L220.505 120.973ZM226.227 75.8538H288.697V88.2613H226.227V75.8538Z" fill="#006FBA"/>
</g>
<defs>
<clipPath id="clip0_28_207">
<rect width="310" height="123" fill="white"/>
</clipPath>
</defs>
</svg>
